<svg width="444" height="398" viewBox="0 0 444 398" fill="none" xmlns="http://www.w3.org/2000/svg">
<path fill-rule="evenodd" clip-rule="evenodd" d="M227.725 104.553C211.259 140.191 210.327 176.235 224.914 213.223C228.999 223.581 239.992 243.671 241.015 242.648C241.275 242.387 240.113 239.448 238.432 236.117C232.636 224.636 227.251 208.102 224.217 192.471C222.25 182.339 222.469 151.579 224.573 142.349C227.122 131.169 230.356 120.971 231.352 120.971C231.853 120.971 233.58 122.883 235.19 125.221C239.201 131.041 243.843 135.857 250.358 140.956C255.766 145.189 268.544 151.971 271.111 151.971C273.531 151.971 273.495 154.687 270.974 162.407C265.758 178.377 264.854 185.008 264.966 206.471C265.037 220.016 265.521 228.214 266.466 231.873C267.821 237.118 267.862 236.784 267.901 220.373C267.96 195.649 271.901 177.54 281.833 156.352L286.107 147.233L280.482 146.015C260.519 141.69 242.722 125.463 234.773 104.34C233.352 100.562 232.005 97.2874 231.781 97.0624C231.558 96.8384 229.732 100.208 227.725 104.553ZM162.759 120.221C160.514 130.023 160.233 151.13 162.222 160.471C168.001 187.616 180.911 212.192 199.077 230.627C207.166 238.835 216.058 246.016 218.038 245.939C218.489 245.922 218.163 245.359 217.313 244.689C213.943 242.032 203.7 229.048 197.796 219.95C180.048 192.6 169.794 164.213 168.635 139.221C168.288 131.742 168.437 126.971 169.018 126.971C169.541 126.971 171.519 128.132 173.414 129.55C177.685 132.748 185.854 136.993 187.575 136.908C188.281 136.873 187.933 136.47 186.803 136.012C183.017 134.479 173.659 125.072 169.369 118.488C167.034 114.904 165.016 111.971 164.885 111.971C164.754 111.971 163.797 115.684 162.759 120.221ZM129.018 133.951C128.461 139.282 129.624 153.789 130.964 158.221C131.332 159.44 130.941 159.971 129.675 159.97C126.806 159.969 115.366 154.209 109.608 149.866L104.358 145.906L104.371 149.189C104.397 155.536 108.211 170.914 111.926 179.646C125.186 210.813 158.018 241.093 189.736 251.409C200.612 254.946 201.048 254.636 192.257 249.614C156.947 229.443 126.254 196.037 114.422 164.898C112.504 159.849 112.499 157.322 114.411 158.504C114.915 158.815 118.952 159.85 123.383 160.803L131.44 162.536L135.69 173.11C143.436 192.381 157.63 212.974 172.158 226.018C181.816 234.69 204.731 248.971 208.986 248.971C209.299 248.971 206.699 246.834 203.207 244.221C199.715 241.608 191.533 234.31 185.024 228.001C166.838 210.375 152.317 189.906 143.968 170.127C139.704 160.025 134.641 142.355 135.705 141.291C135.964 141.031 139.255 142.156 143.017 143.789C146.78 145.423 151.433 147.052 153.358 147.409C156.289 147.953 155.754 147.458 150.066 144.364C146.331 142.331 140.206 137.827 136.455 134.354L129.636 128.041L129.018 133.951Z" fill="#2D2D2D" fill-opacity="0.81"/>
<path d="M186.187 126.053C186.187 126.053 191.497 105.492 195.241 97.1458C198.218 90.5128 198.408 88.5317 195.866 90.6407C193.787 92.3657 181.404 96.8117 178.898 96.7317C177.256 96.6797 177.812 96.1547 181.012 94.7347C185.779 92.6177 200.555 82.2567 203.576 78.9117C206.338 75.8547 206.862 76.2387 207.388 81.7087C207.858 86.6047 213.853 100.689 216.899 104.055C217.775 105.023 218.243 106.064 217.938 106.369C217.175 107.133 211.677 101.195 208.389 96.0547C206.894 93.7187 205.225 91.9547 204.68 92.1347C203.321 92.5847 197.44 112.413 195.583 122.803C194.698 127.757 194.067 137.143 194.071 145.303C194.083 167.836 197.909 184.721 207.714 205.522C214.521 219.963 220.237 228.398 229.863 238.209C239.297 247.824 246.094 252.313 254.593 254.542C258.5 255.566 261 256 265.5 254.542C268.095 253.462 270.75 251.5 272 250C274.5 247 276.235 233.697 273.737 223.508C273.439 222.295 274.094 223.185 275.192 225.485C276.289 227.785 277.47 232.368 277.815 235.668C279.393 250.768 272.061 260.146 258.671 260.152C246.476 260.158 234.89 253.904 221.171 239.91C197.501 215.765 184.183 182.709 184.174 148.079C184.174 148.079 184.171 140.628 184.171 135.854L184.171 135C184.171 134.609 184.2 134.5 184.2 134C184.2 133.5 184.671 131 184.671 131L186.187 126.053Z" fill="#7692B7"/>
<path d="M56.536 289.184L65.208 312H59.96L58.168 306.912H49.688L47.832 312H42.712L51.384 289.184H56.536ZM56.952 303.264L53.944 294.784L50.904 303.264H56.952ZM90.9862 289.216V302.912C90.9862 306.176 90.1863 308.608 88.6182 310.144C87.0503 311.68 84.6182 312.448 81.2902 312.448C77.8982 312.448 75.4342 311.68 73.8342 310.112C72.2342 308.544 71.4662 306.112 71.4662 302.848V289.216H76.4583V302.848C76.4583 304.704 76.8102 306.08 77.5142 306.976C78.2183 307.872 79.4983 308.32 81.3542 308.32C83.1462 308.32 84.3623 307.872 85.0023 306.976C85.6423 306.08 85.9943 304.704 85.9943 302.848V289.216H90.9862ZM117.105 289.216V293.024L104.753 307.712H117.521V312H98.225V307.936L110.481 293.472H99.089V289.216H117.105ZM122.911 289.216H127.935L131.583 304.704L135.583 289.216H140.287L144.223 304.896L147.999 289.216H152.927L146.783 312H141.791L137.887 296.448L134.047 312H128.959L122.911 289.216ZM164.746 289.216V312H159.722V289.216H164.746ZM173.671 312V289.216H182.887C186.407 289.216 189.127 290.208 191.047 292.16C192.967 294.144 193.927 296.96 193.927 300.608C193.927 304.288 192.967 307.104 191.047 309.056C189.127 311.04 186.407 312 182.887 312H173.671ZM178.631 307.84H182.247C186.663 307.84 188.871 305.44 188.871 300.608C188.871 298.304 188.327 296.512 187.239 295.264C186.151 294.016 184.487 293.376 182.279 293.376H178.631V307.84ZM218.926 289.216V293.312H206.798V298.272H217.934V302.208H206.798V307.808H219.15V312H201.838V289.216H218.926ZM269.969 307.712V312H253.841V289.216H258.833V307.712H269.969ZM287.593 288.672C290.921 288.672 293.609 289.792 295.657 292C297.705 294.208 298.761 297.088 298.761 300.64C298.761 304.224 297.705 307.104 295.657 309.28C293.609 311.456 290.889 312.544 287.561 312.544C284.169 312.544 281.449 311.456 279.401 309.28C277.321 307.104 276.297 304.224 276.297 300.64C276.297 297.056 277.321 294.144 279.369 291.968C281.417 289.792 284.169 288.672 287.593 288.672ZM287.529 292.768C285.641 292.768 284.137 293.504 283.017 294.912C281.897 296.32 281.321 298.208 281.321 300.576C281.321 303.008 281.897 304.928 282.985 306.336C284.105 307.712 285.641 308.416 287.593 308.448C289.481 308.448 290.985 307.744 292.073 306.336C293.161 304.928 293.705 303.008 293.705 300.576C293.705 298.176 293.129 296.288 292.041 294.88C290.921 293.472 289.417 292.768 287.529 292.768ZM318.003 289.184L326.675 312H321.427L319.635 306.912H311.155L309.299 312H304.179L312.851 289.184H318.003ZM318.419 303.264L315.411 294.784L312.371 303.264H318.419ZM333.062 312V289.216H338.15L347.526 304.48V289.216H352.326V312H347.334L337.894 296.704V312H333.062ZM378.124 296L373.356 296.032C373.164 293.76 371.724 292.64 369.036 292.64C367.884 292.64 366.988 292.864 366.348 293.312C365.708 293.76 365.356 294.4 365.356 295.232C365.356 295.488 365.42 295.744 365.484 295.968C365.58 296.16 365.74 296.352 365.964 296.544C366.22 296.736 366.444 296.864 366.668 296.992C366.924 297.12 367.276 297.248 367.724 297.376C368.172 297.504 368.588 297.632 368.972 297.76C369.356 297.856 369.868 297.984 370.54 298.176C371.244 298.336 371.82 298.496 372.332 298.656C374.572 299.296 376.268 300.096 377.356 301.056C378.444 302.016 378.988 303.392 378.988 305.184C378.988 306.464 378.732 307.616 378.188 308.576C377.676 309.536 376.94 310.304 376.044 310.88C375.148 311.456 374.156 311.872 373.068 312.128C371.98 312.384 370.828 312.544 369.612 312.544C366.54 312.544 364.108 311.808 362.38 310.4C360.652 308.992 359.756 306.976 359.724 304.416H364.684C364.78 307.264 366.508 308.704 369.836 308.704C371.148 308.704 372.172 308.416 372.94 307.872C373.708 307.328 374.06 306.592 374.06 305.664C374.06 304.864 373.74 304.288 373.036 303.936C372.332 303.552 370.892 303.072 368.652 302.432C368.524 302.4 368.428 302.368 368.364 302.368C368.3 302.336 368.236 302.304 368.108 302.272C368.012 302.24 367.916 302.208 367.82 302.208C367.052 301.984 366.54 301.824 366.22 301.728C365.932 301.632 365.452 301.472 364.812 301.248C364.172 300.992 363.692 300.8 363.404 300.608C363.084 300.416 362.732 300.128 362.284 299.808C361.836 299.456 361.548 299.104 361.356 298.72C361.164 298.336 360.972 297.888 360.812 297.344C360.652 296.8 360.588 296.224 360.588 295.584C360.588 293.504 361.388 291.84 362.988 290.592C364.588 289.376 366.7 288.736 369.356 288.736C371.916 288.736 373.996 289.344 375.628 290.56C377.228 291.776 378.06 293.568 378.124 296Z" fill="#2D2D2D" fill-opacity="0.81"/>
</svg>
